<svg width="64" height="64" viewBox="0 0 64 64" fill="none" xmlns="http://www.w3.org/2000/svg">
<rect width="64" height="43" transform="translate(0 10.5)" fill="black"/>
<path d="M14.68 38.5H10.4L4.84 25.1H8.46L12.48 35.46H12.68L16.64 25.1H20.24L14.68 38.5ZM23.8781 38.5H20.8781V25.1H23.8781V38.5ZM32.3084 38.7C27.8884 38.7 25.1484 35.98 25.1484 31.8C25.1484 27.62 27.8884 24.9 32.3084 24.9C36.4684 24.9 39.1484 26.98 39.1484 30.38V30.68H35.8084V30.38C35.8084 28.62 34.8084 27.78 32.3684 27.78C29.4284 27.78 28.3284 28.82 28.3284 31.8C28.3284 34.78 29.4284 35.82 32.3684 35.82C34.8084 35.82 35.8084 34.98 35.8084 33.22V32.92H39.1484V33.22C39.1484 36.62 36.4884 38.7 32.3084 38.7ZM47.9084 38.5H44.9084V27.8H39.9284V25.1H52.8884V27.8H47.9084V38.5ZM57.6241 38.5H53.7641V35H57.6241V38.5Z" fill="white"/>
</svg>
